<?xml version="1.0" standalone="no"?>
<!DOCTYPE svg PUBLIC "-//W3C//DTD SVG 20010904//EN"
 "http://www.w3.org/TR/2001/REC-SVG-20010904/DTD/svg10.dtd">
<svg version="1.0" xmlns="http://www.w3.org/2000/svg"
 width="500.000000pt" height="500.000000pt" viewBox="0 0 500.000000 500.000000"
 preserveAspectRatio="xMidYMid meet">
<metadata>
Created by potrace 1.16, written by Peter Selinger 2001-2019
</metadata>
<g transform="translate(0.000000,500.000000) scale(0.100000,-0.100000)"
fill="#000000" stroke="none">
<path d="M990 3603 c-1 -4 -1 -199 0 -433 0 -234 0 -435 0 -447 0 -21 5 -23
55 -23 l55 0 2 390 3 391 315 0 c341 0 418 -8 549 -57 170 -64 257 -163 281
-323 22 -139 -9 -256 -92 -346 l-50 -55 76 0 76 0 34 53 c56 84 78 165 78 287
1 119 -15 185 -64 270 -90 158 -290 262 -553 288 -115 12 -765 16 -765 5z"/>
<path d="M2847 3603 c-4 -3 -7 -208 -7 -455 l0 -448 60 0 60 0 0 390 0 390
563 1 c309 1 565 1 570 0 4 0 7 28 7 64 l0 65 -623 0 c-343 0 -627 -3 -630 -7z"/>
<path d="M3358 2590 c-28 -29 -30 -35 -26 -87 4 -43 10 -61 28 -75 26 -21 80
-24 99 -5 11 10 14 10 18 0 12 -32 24 -8 21 40 l-3 52 -37 3 c-22 2 -38 -1
-38 -7 0 -6 11 -11 25 -11 29 0 32 -16 9 -48 -18 -27 -55 -29 -77 -4 -19 21
-23 92 -7 123 14 26 66 26 82 -1 15 -23 38 -27 38 -6 0 21 -49 56 -77 56 -14
0 -38 -13 -55 -30z"/>
<path d="M1290 2510 l0 -100 55 0 c42 0 60 5 76 21 22 22 19 55 -7 75 -12 10
-12 13 1 24 8 7 15 21 15 31 0 33 -28 49 -86 49 l-54 0 0 -100z"/>
<path d="M2192 2513 c2 -66 7 -98 16 -101 8 -2 12 10 12 42 0 44 1 46 29 46
24 0 31 -6 45 -45 10 -25 24 -45 32 -45 14 0 8 24 -16 69 -7 14 -5 23 10 36
22 20 25 46 10 76 -9 16 -22 19 -76 19 l-65 0 3 -97z"/>
<path d="M3100 2510 l0 -100 40 0 c77 0 110 33 110 111 0 59 -34 89 -100 89
l-50 0 0 -100z"/>
<path d="M2207 2302 c-12 -3 -7 -14 23 -54 53 -71 80 -158 80 -262 0 -183 -70
-297 -222 -365 -152 -68 -262 -81 -675 -81 l-313 0 0 380 0 380 -55 0 -55 0
-1 -425 c-1 -234 -2 -433 -3 -442 -1 -17 24 -18 389 -18 332 1 406 3 495 19
124 21 237 61 319 111 62 37 151 126 177 178 79 153 84 389 10 528 -24 44 -24
44 -89 49 -35 3 -71 4 -80 2z"/>
<path d="M2842 1858 l3 -443 650 0 650 0 0 60 0 60 -592 3 -593 2 0 380 0 380
-60 0 -60 0 2 -442z"/>
</g>
</svg>
